<?xml version="1.0" standalone="no"?>
<!DOCTYPE svg PUBLIC "-//W3C//DTD SVG 20010904//EN"
 "http://www.w3.org/TR/2001/REC-SVG-20010904/DTD/svg10.dtd">
<svg version="1.0" xmlns="http://www.w3.org/2000/svg"
 width="500.000000pt" height="500.000000pt" viewBox="0 0 500.000000 500.000000"
 preserveAspectRatio="xMidYMid meet">
<metadata>
Created by potrace 1.11, written by Peter Selinger 2001-2013
</metadata>
<g transform="translate(0.000000,500.000000) scale(0.100000,-0.100000)"
fill="#000000" stroke="none">
<path d="M3471 4558 c-1 -19 -21 -26 -21 -8 0 6 -7 10 -15 10 -9 0 -15 -9 -15
-21 0 -12 -5 -19 -12 -16 -7 2 -12 10 -10 16 1 6 -2 11 -8 11 -5 0 -10 -4 -10
-10 0 -5 -13 -7 -29 -4 -16 4 -32 1 -35 -5 -4 -6 -18 -11 -32 -11 -14 0 -22 4
-19 10 3 6 -3 10 -14 10 -12 0 -21 -4 -21 -9 0 -5 -24 -9 -52 -9 -29 0 -107
-5 -173 -10 -66 -6 -158 -9 -204 -6 -52 2 -89 0 -97 -7 -7 -6 -17 -8 -22 -5
-5 3 -38 1 -73 -5 -60 -10 -98 -12 -159 -5 -14 1 -29 -1 -35 -5 -18 -13 -125
-22 -125 -11 0 10 -10 10 -62 -4 -13 -3 -63 -6 -113 -7 -57 -1 -93 -6 -98 -14
-4 -7 -20 -10 -42 -6 -19 3 -42 2 -52 -3 -21 -9 -29 -11 -103 -23 -30 -5 -86
-10 -125 -10 -85 -2 -195 -24 -246 -50 -20 -11 -39 -17 -42 -15 -2 3 -18 -9
-35 -26 -17 -16 -35 -30 -41 -30 -6 0 -11 -9 -11 -20 0 -11 -7 -23 -15 -27 -9
-3 -15 -13 -14 -22 3 -32 -1 -51 -11 -51 -5 0 -10 7 -10 16 0 8 -5 12 -10 9
-6 -4 -8 -10 -5 -15 3 -4 2 -10 -2 -12 -15 -6 -42 -68 -32 -73 5 -4 5 -14 -1
-26 -6 -11 -8 -24 -5 -29 4 -6 -1 -24 -9 -41 -10 -19 -13 -44 -10 -65 4 -24 1
-36 -9 -40 -10 -3 -13 -18 -11 -46 1 -23 -3 -56 -11 -74 -7 -18 -11 -34 -9
-37 3 -2 -1 -17 -7 -33 -7 -16 -11 -71 -11 -123 1 -51 -2 -110 -7 -130 -4 -20
-4 -48 0 -63 4 -17 2 -37 -7 -53 -8 -15 -13 -46 -12 -69 1 -22 -2 -81 -6 -131
-5 -49 -10 -121 -12 -160 -1 -38 -7 -86 -11 -105 -5 -19 -8 -44 -7 -55 6 -67
6 -113 0 -132 -4 -12 -2 -31 4 -43 7 -14 7 -20 0 -20 -6 0 -10 -12 -10 -27 2
-47 -7 -140 -13 -150 -3 -5 -4 -21 -3 -36 2 -15 -3 -32 -10 -38 -14 -12 -9
-33 6 -24 5 3 7 -7 6 -22 -2 -16 2 -31 8 -35 8 -5 8 -10 -1 -19 -9 -9 -9 -17
-1 -32 5 -11 8 -37 5 -58 -3 -26 -2 -37 5 -32 7 4 8 1 3 -7 -8 -13 -8 -49 -1
-115 2 -16 0 -35 -5 -41 -14 -18 -17 -146 -4 -191 7 -24 11 -43 8 -43 -3 0 0
-6 6 -13 6 -8 8 -17 4 -21 -4 -4 -1 -11 7 -16 12 -7 12 -11 -1 -26 -11 -13
-11 -18 -2 -21 9 -3 10 -10 3 -24 -8 -14 -7 -19 1 -19 8 0 8 -5 -2 -16 -9 -11
-9 -18 -2 -22 6 -4 13 -36 17 -72 9 -93 17 -134 26 -140 5 -3 12 -28 15 -55 4
-28 12 -59 18 -70 6 -11 10 -25 9 -32 -1 -6 2 -14 7 -17 5 -3 7 -15 4 -26 -4
-14 0 -20 11 -20 9 0 16 -5 16 -11 0 -5 -4 -8 -8 -5 -14 8 -1 -58 15 -75 11
-14 12 -18 1 -22 -8 -3 -9 -6 -1 -6 6 -1 9 -10 6 -21 -3 -12 0 -20 7 -20 9 0
7 -7 -5 -20 -18 -19 -17 -20 3 -20 12 0 22 -4 22 -10 0 -5 -4 -10 -10 -10 -5
0 0 -25 11 -55 11 -31 18 -62 15 -70 -3 -8 0 -15 7 -15 12 0 14 -11 17 -115 2
-30 6 -55 11 -55 5 0 9 -9 9 -20 0 -11 5 -20 11 -20 5 0 9 -8 7 -18 -2 -11 3
-26 10 -35 9 -10 10 -17 2 -22 -18 -11 -10 -49 15 -74 14 -13 25 -27 25 -31 0
-5 19 -29 42 -53 l41 -45 47 18 c28 11 52 15 60 10 8 -5 18 -6 22 -4 4 3 8 -2
8 -11 0 -16 38 -37 53 -28 4 2 7 -1 7 -6 0 -6 9 -11 20 -11 11 0 20 -5 20 -11
0 -6 5 -7 13 -2 6 4 24 9 40 10 48 4 57 6 57 15 0 5 9 4 20 -2 17 -9 20 -8 20
7 0 15 2 16 11 3 8 -12 12 -12 16 -2 4 10 8 10 19 1 11 -9 14 -9 14 0 0 7 5 9
10 6 6 -3 10 -2 10 2 0 5 16 10 37 11 20 2 40 5 45 8 4 3 8 1 8 -4 0 -5 11 -7
25 -4 14 2 25 8 25 12 0 11 39 20 45 10 6 -10 100 -3 124 9 14 6 22 7 48 2 4
0 -2 -7 -12 -15 -11 -8 -36 -13 -57 -12 -21 0 -38 -2 -38 -5 0 -12 -55 -18
-67 -8 -7 7 -13 6 -18 0 -3 -6 -28 -13 -55 -17 -28 -4 -50 -9 -50 -13 0 -3
-15 -7 -32 -8 -88 -5 -198 -27 -198 -39 0 -30 72 -41 124 -19 25 11 35 12 30
4 -4 -7 -3 -9 3 -6 6 4 44 9 84 12 41 4 76 10 77 16 2 5 19 9 38 9 19 0 34 4
34 8 0 4 15 9 32 10 18 2 42 9 55 17 15 10 23 11 25 3 6 -18 28 1 29 25 0 21
1 21 11 -3 l11 -25 7 25 c5 16 8 19 9 8 1 -23 10 -23 32 3 10 12 23 18 30 14
6 -4 14 -3 18 3 6 10 40 18 111 27 19 2 54 11 78 19 23 8 42 13 42 9 0 -3 7 0
15 7 8 7 15 9 15 5 0 -4 6 -3 13 2 6 5 37 9 67 8 30 -1 61 3 69 9 7 6 30 11
50 11 20 1 56 7 80 14 23 7 46 10 49 7 3 -3 13 1 22 9 10 9 40 19 68 24 28 4
58 13 66 20 8 7 20 10 26 6 5 -3 13 0 16 9 3 8 12 12 21 9 9 -4 22 2 31 13 11
14 13 15 9 3 -5 -15 -1 -15 36 -4 22 6 42 16 44 22 2 5 17 8 33 5 21 -3 32 1
36 12 3 9 10 13 15 10 5 -3 9 2 9 10 0 9 4 16 10 16 6 0 6 -9 0 -25 -6 -16 -6
-25 0 -25 6 0 10 7 10 15 0 8 5 15 10 15 6 0 10 -4 10 -10 0 -5 6 -7 14 -4 8
3 12 13 9 25 -3 10 0 19 6 19 6 0 11 -8 11 -17 1 -17 2 -17 15 1 9 12 22 17
39 14 17 -3 23 -1 19 8 -2 7 5 17 16 23 25 14 34 14 26 1 -12 -20 11 -9 43 20
38 34 42 36 42 15 0 -19 42 -30 67 -17 20 10 93 27 107 23 18 -4 46 11 40 21
-5 7 -1 9 9 5 8 -3 21 1 27 9 7 8 19 14 27 14 7 0 16 7 19 15 4 8 10 13 14 10
5 -3 12 -1 15 5 5 8 11 8 20 0 10 -8 14 -4 19 15 4 14 11 23 16 20 6 -4 13 0
16 9 3 8 12 12 20 9 10 -4 12 0 7 13 -4 12 -3 15 5 10 7 -4 12 -3 12 2 0 5 8
12 18 16 32 11 87 46 105 67 20 25 23 75 3 86 -35 21 -86 68 -86 80 0 7 -3 12
-7 12 -23 -4 -35 3 -29 16 3 8 2 15 -2 15 -4 0 -35 25 -67 55 -61 56 -70 61
-79 47 -3 -5 -55 -8 -116 -8 -60 1 -110 -2 -110 -6 0 -5 -8 -8 -18 -8 -10 0
-22 -3 -25 -7 -4 -3 -32 -7 -63 -9 -31 -1 -60 -8 -64 -14 -4 -7 -13 -10 -19
-6 -6 4 -21 2 -33 -5 -12 -7 -40 -11 -62 -11 -28 2 -46 -4 -61 -18 -12 -12
-26 -20 -31 -19 -9 2 -33 -5 -74 -24 -14 -6 -29 -12 -35 -13 -5 -1 -12 -3 -15
-4 -8 -4 -53 -10 -87 -11 -18 0 -40 -7 -50 -14 -10 -8 -31 -11 -50 -8 -24 4
-34 1 -39 -11 -3 -9 -10 -13 -15 -10 -5 3 -33 -3 -62 -14 -28 -11 -65 -19 -80
-18 -16 1 -31 -2 -33 -6 -3 -4 -23 -8 -45 -8 -24 0 -39 -5 -39 -12 0 -9 -3 -9
-11 -1 -9 9 -15 8 -26 -3 -8 -8 -24 -14 -36 -14 -12 0 -47 -7 -77 -16 -50 -14
-95 -20 -200 -27 -22 -1 -35 3 -36 11 -1 6 -3 15 -4 20 -1 4 -2 11 -1 16 1 5
-2 12 -7 15 -19 12 -80 152 -75 171 3 11 2 28 -2 37 -4 10 -9 31 -11 47 -3 17
-9 33 -15 37 -7 4 -12 30 -12 58 0 28 -4 54 -8 57 -5 3 -9 18 -9 34 0 16 -5
32 -10 35 -6 4 -8 11 -4 16 3 5 1 15 -4 22 -15 20 -20 53 -10 71 6 10 5 16 -2
16 -6 0 -10 8 -9 17 1 10 -3 31 -9 46 -7 16 -12 37 -12 47 0 10 -5 22 -10 25
-7 5 -8 11 -1 18 6 8 5 18 -3 29 -8 10 -11 35 -9 59 3 30 -1 47 -14 62 -14 15
-14 19 -3 15 11 -4 15 3 16 28 0 19 -3 34 -8 34 -4 0 -8 6 -8 14 0 8 -6 17
-12 19 -10 4 -10 6 -1 6 7 1 10 8 7 16 -4 8 -1 15 5 15 6 0 11 7 11 15 0 8 -7
15 -16 15 -14 0 -14 3 -4 15 10 12 10 19 2 27 -17 17 -15 35 8 58 12 12 26 17
36 13 13 -5 15 -3 9 7 -6 9 -4 11 5 5 7 -4 16 -2 21 6 6 10 9 11 9 2 0 -15 56
-18 65 -3 4 6 12 7 22 1 9 -5 29 -5 45 -1 15 5 28 6 28 4 0 -3 10 2 21 10 12
8 28 12 35 9 8 -3 36 4 63 15 26 12 69 23 96 25 29 3 53 11 60 21 7 8 15 13
18 9 11 -10 8 -25 -3 -18 -5 3 -10 1 -10 -5 0 -18 24 -6 36 19 8 15 13 18 16
10 3 -9 13 -5 34 14 16 15 30 23 32 17 5 -15 32 -12 32 4 0 17 22 26 61 26 16
0 29 5 29 10 0 6 7 10 15 10 8 0 15 4 15 10 0 5 7 7 15 4 8 -4 15 -1 15 5 0 6
11 11 25 11 14 0 25 4 25 8 0 5 15 8 33 7 42 -3 57 3 57 24 0 9 3 12 8 6 14
-19 43 -16 62 7 l19 23 -5 -25 c-5 -19 -3 -22 5 -10 8 12 13 12 23 2 13 -13
74 -17 81 -4 3 4 25 7 49 7 23 0 46 4 49 8 4 5 18 10 33 10 14 1 26 8 26 15 0
6 7 12 15 12 8 0 15 4 15 10 0 5 6 7 14 4 7 -3 20 1 27 9 8 7 20 12 27 9 7 -2
11 0 10 5 -2 4 -1 8 2 8 14 2 50 42 50 56 0 15 -52 42 -83 44 -4 0 -12 6 -16
14 -5 8 -24 14 -43 13 -38 -1 -108 15 -108 26 0 4 -12 8 -26 9 -15 0 -29 5
-33 11 -5 8 -39 23 -61 27 -25 5 -50 18 -50 27 0 7 5 6 14 -1 8 -7 17 -8 20
-3 7 12 64 13 72 1 3 -6 12 -5 21 3 12 10 17 9 27 -2 6 -8 22 -17 36 -19 14
-2 30 -4 35 -5 6 -1 37 -14 69 -29 46 -21 61 -25 68 -15 12 19 10 25 -13 46
-12 12 -28 18 -41 14 -14 -3 -19 -1 -14 6 4 7 0 12 -10 12 -10 0 -25 7 -34 15
-9 8 -43 17 -76 20 -32 4 -69 8 -81 11 -14 3 -23 0 -23 -8 -1 -8 -6 -6 -14 5
-14 18 -15 18 -25 0 -6 -10 -11 -14 -11 -9 0 6 -7 1 -15 -10 -15 -19 -15 -19
-9 1 5 18 4 18 -6 2 -6 -9 -8 -22 -5 -27 4 -7 -3 -8 -19 -4 -16 4 -26 2 -26
-5 0 -6 -9 -11 -21 -11 -11 0 -17 5 -14 10 3 6 -1 10 -9 10 -9 0 -16 -5 -16
-11 0 -5 -5 -7 -11 -3 -6 4 -37 9 -69 11 -43 3 -60 0 -70 -12 -13 -16 -95 -21
-104 -6 -9 15 7 21 22 9 11 -10 17 -8 28 7 19 25 18 41 -1 25 -8 -7 -15 -8
-15 -3 0 10 -75 6 -105 -6 -48 -20 -93 -30 -130 -31 -73 -2 -86 -4 -151 -30
-41 -16 -181 -32 -250 -28 l-69 4 0 82 c0 45 3 82 8 82 4 0 7 7 7 16 0 8 -4
12 -10 9 -6 -3 -10 -1 -10 4 0 6 5 11 11 11 6 0 9 9 6 20 -3 10 0 21 5 22 6 2
11 28 12 58 1 30 6 62 11 70 9 15 17 81 16 142 0 20 3 39 7 42 4 2 5 37 2 76
-3 39 -2 74 2 76 5 3 5 17 2 32 -3 16 -2 22 3 15 5 -7 9 6 10 33 1 28 -3 44
-10 44 -7 0 -4 7 7 15 18 14 19 34 1 80 -7 16 -6 18 6 8 18 -18 34 -16 20 1
-9 10 -9 16 -1 21 6 4 8 15 5 25 -11 34 -6 120 10 170 4 11 2 20 -4 20 -6 0
-11 5 -11 11 0 5 4 8 9 5 5 -3 11 3 14 14 3 11 1 22 -4 25 -11 7 0 37 20 53
12 10 13 15 3 21 -9 6 -10 15 -1 39 6 18 9 38 6 45 -7 18 38 74 71 91 23 11
83 19 227 30 17 2 36 -2 43 -7 9 -7 16 -7 24 1 7 7 19 7 34 2 16 -6 24 -6 24
1 0 6 7 6 20 -1 14 -8 20 -8 20 0 0 7 8 9 21 5 14 -5 25 -2 30 6 5 8 9 9 9 3
0 -8 23 -10 73 -7 39 2 84 4 100 3 15 0 27 4 27 10 0 6 23 9 54 9 29 -1 59 2
66 6 21 13 194 22 202 11 4 -6 12 -5 21 2 8 7 48 15 88 17 115 8 141 12 231
35 169 43 160 39 156 63 -3 23 -34 42 -82 52 -20 4 -26 9 -18 17 14 14 -44 74
-69 70 -13 -2 -17 1 -13 11 4 11 -5 17 -35 22 -22 4 -45 4 -51 0 -5 -3 -12 0
-15 7 -7 18 -47 21 -57 5 -5 -8 -8 -6 -8 7 0 16 -2 16 -20 -5 -10 -13 -19 -19
-20 -13 0 5 5 15 11 21 6 6 9 17 6 25 -4 9 -6 7 -6 -4z m144 -86 c18 -12 16
-12 -15 -8 -74 10 -121 19 -124 25 -7 11 118 -4 139 -17z m-2385 -812 c0 -5
-7 -7 -15 -4 -8 4 -15 8 -15 10 0 2 7 4 15 4 8 0 15 -4 15 -10z m-40 -444 c0
-3 -4 -8 -10 -11 -5 -3 -10 -1 -10 4 0 6 5 11 10 11 6 0 10 -2 10 -4z m-15
-214 c-4 -45 -10 -70 -15 -62 -5 7 -6 18 -4 24 4 12 12 74 14 121 2 21 4 24 7
11 3 -11 2 -53 -2 -94z m-25 -302 c0 -49 -4 -90 -9 -90 -9 0 -13 108 -4 153 9
49 13 29 13 -63z m1032 -440 c24 0 -4 -13 -33 -17 -28 -3 -30 -1 -19 12 7 9
20 13 27 10 8 -3 20 -5 25 -5z m45 -1002 c-3 -8 -6 -5 -6 6 -1 11 2 17 5 13 3
-3 4 -12 1 -19z m43 -223 c0 -5 -5 -3 -10 5 -5 8 -10 20 -10 25 0 6 5 3 10 -5
5 -8 10 -19 10 -25z m39 -61 c3 -16 1 -17 -13 -5 -19 16 -21 34 -3 29 6 -3 14
-13 16 -24z m1343 -316 c-7 -7 -12 -8 -12 -2 0 14 12 26 19 19 2 -3 -1 -11 -7
-17z m-197 -38 c3 -5 1 -10 -4 -10 -6 0 -11 5 -11 10 0 6 2 10 4 10 3 0 8 -4
11 -10z m-25 -14 c0 -2 -11 -6 -25 -8 -13 -3 -22 -1 -19 3 5 9 44 13 44 5z
m-70 -26 c-20 -13 -43 -13 -35 0 3 6 16 10 28 10 18 0 19 -2 7 -10z m-80 -10
c0 -5 -10 -10 -22 -9 -22 0 -22 1 -3 9 11 5 21 9 23 9 1 1 2 -3 2 -9z m-56
-14 c-3 -8 -15 -16 -27 -19 -12 -3 -39 -10 -60 -15 -22 -6 -39 -6 -43 -1 -3 5
-4 9 -2 9 2 0 28 9 58 20 66 23 81 25 74 6z m-154 -31 c0 -7 -50 -27 -72 -30
-27 -3 -11 9 30 21 20 7 38 12 40 13 1 1 2 -1 2 -4z m-110 -35 c0 -5 -5 -10
-11 -10 -5 0 -7 5 -4 10 3 6 8 10 11 10 2 0 4 -4 4 -10z m-1466 -116 c18 -18
21 -34 6 -34 -5 0 -10 4 -10 9 0 5 -9 13 -20 16 -11 4 -18 11 -15 16 9 13 21
11 39 -7z m886 -34 c0 -5 -4 -10 -10 -10 -5 0 -10 5 -10 10 0 6 5 10 10 10 6
0 10 -4 10 -10z m-638 -32 c-7 -7 -12 -8 -12 -2 0 14 12 26 19 19 2 -3 -1 -11
-7 -17z m-32 8 c0 -3 -4 -8 -10 -11 -5 -3 -10 -1 -10 4 0 6 5 11 10 11 6 0 10
-2 10 -4z m70 -7 c0 -5 5 -7 10 -4 6 3 10 1 10 -4 0 -6 -9 -11 -20 -11 -11 0
-20 7 -20 15 0 8 5 15 10 15 6 0 10 -5 10 -11z m55 1 c3 -5 1 -10 -4 -10 -6 0
-11 5 -11 10 0 6 2 10 4 10 3 0 8 -4 11 -10z"/>
</g>
</svg>
